PathFileType	4	(X/Y/Z)	22_2_112_p1_0-158_filt_butterworth.trc
DataRate	CameraRate	NumFrames	NumMarkers	Units	OrigDataRate	OrigDataStartFrame	OrigNumFrames
59.0	59.0	7	27	m	59.0	98	158
Frame#	Time	RHip			RKnee			RAnkle			RBigToe			RSmallToe			RHeel			LHip			LKnee			LAnkle			LBigToe			LSmallToe			LHeel			Neck			Head			Nose			RShoulder			RElbow			RWrist			RThumb			RIndex			RPinky			LShoulder			LElbow			LWrist			LThumb			LIndex			LPinky			
		X1	Y1	Z1	X2	Y2	Z2	X3	Y3	Z3	X4	Y4	Z4	X5	Y5	Z5	X6	Y6	Z6	X7	Y7	Z7	X8	Y8	Z8	X9	Y9	Z9	X10	Y10	Z10	X11	Y11	Z11	X12	Y12	Z12	X13	Y13	Z13	X14	Y14	Z14	X15	Y15	Z15	X16	Y16	Z16	X17	Y17	Z17	X18	Y18	Z18	X19	Y19	Z19	X20	Y20	Z20	X21	Y21	Z21	X22	Y22	Z22	X23	Y23	Z23	X24	Y24	Z24	X25	Y25	Z25	X26	Y26	Z26	X27	Y27	Z27	
98	1.6610169491525424	0.24724774244615294	0.6124809279118427	1.0286209900764323	0.2801101926048246	0.7650664568680843	1.4212789904504959	0.29804237806653877	0.9230496342179987	1.8229542992942145	0.25603437549160785	0.7256677032733552	1.8794138091808552	0.3159648089268936	0.7722011141251227	1.8858834442267847	0.29714680377498326	1.0063918164642889	1.873336689990897	0.036985264852598655	0.6601598558931879	1.0513980107393721	0.07924168720223547	0.7950012036946266	1.4260726278855327	0.10083147095138127	0.920539178844584	1.8251487824250183	0.09566250912962608	0.7435146826883993	1.8829052311362156	0.04989513886773212	0.789080699047736	1.8773994506931373	0.13261455249012485	0.9910118403682687	1.8770402349487418	0.05391588857917523	0.45178652447812606	0.4714851518667468	0.0242941344963031	0.38959026739269537	0.23705229819797327	0.04655988614180527	0.3458209821193167	0.3723296232492335	0.23779626210928215	0.4614611369901769	0.485311590791662	0.4877661065308098	0.4827906349422589	0.4262672546761268	0.48383353764162323	0.4525286729010081	0.2330401559022145	0.3857524024209437	0.4677194069793795	0.15333300791197235	0.3969071525161588	0.43740986430028256	0.1559175869313072	0.4623377548302957	0.43013734990473185	0.16867103608740358	-0.09935965688834941	0.4971831152450134	0.5774312901551175	-0.19403154569885733	0.5997034146375358	0.7797841898833208	-0.06325621385061653	0.46526481282832227	0.8588326001067742	0.019109632834579292	0.422027566699934	0.7932026461831683	0.03321898344699511	0.38390751510518334	0.8394216499613537	0.0446604576124188	0.4147652155111961	0.9064511203958945
99	1.6779661016949152	0.24776058629408193	0.6137969599452188	1.0287938568937192	0.2804717202671465	0.7656119009127846	1.421726850609145	0.2980483612682374	0.9229954043915228	1.8229347427696727	0.25594523866410984	0.7255620693329795	1.8794310578103492	0.3158378805301427	0.7721189058189962	1.8858908274833937	0.297159966327855	1.0063866932793837	1.8733338889997293	0.03688253100485318	0.6604151683195381	1.051382187613003	0.07931056496281669	0.7953253703389633	1.4258328864676821	0.10081581643511568	0.92053288700471	1.8252223486703238	0.09494436827164052	0.7430096504500584	1.880679256299158	0.050018397362863995	0.7886709721575933	1.8772441659385057	0.13262201389152234	0.9910423478086974	1.8770541275288422	0.05488387542533125	0.45129713486786815	0.4714631228405815	0.0250948518949139	0.3880624063895241	0.23715168042262832	0.047467792567360376	0.34341165304660365	0.3717278745879129	0.23777222672193213	0.46180304734643884	0.48603526680521403	0.49009672347685573	0.48262636867681014	0.42917925364383674	0.48575643286512904	0.45116319977605773	0.23888001316529106	0.38650876111997773	0.45109459018407166	0.1568212006095763	0.4029617818261821	0.4127077369403528	0.16167836436512215	0.46534021273213433	0.4233943736705242	0.17419338174125193	-0.09961732133599575	0.497309929901686	0.5773142584626403	-0.1932971228691523	0.6030449284268476	0.7786905859253684	-0.061359475899581704	0.47007560490962114	0.8625070349977617	0.017672009358315834	0.41831725798458463	0.7964588616573327	0.03449141980515646	0.38317835961186536	0.8417727112009012	0.04614503232209012	0.4262544804648632	0.9113481991331019
100	1.694915254237288	0.24931891151255736	0.6173277420110501	1.0299385061427437	0.28063344135104773	0.7657587192576203	1.422218516985697	0.29802798644212186	0.9229450538772797	1.8229101383207191	0.2558550433672145	0.7254335432176361	1.8794469036946853	0.31583156888077896	0.772229549793379	1.8859280775682423	0.2971578622482102	1.0063734580541452	1.8733305405743879	0.03681843107254991	0.6604234781603558	1.0514808720674176	0.07961183875521025	0.7960571662993334	1.4268479667653209	0.10080550700928406	0.9205112349289855	1.8252430879542807	0.09421192473849443	0.7425746340141269	1.8783847279638	0.05017286523905735	0.7882672499939419	1.8770128812534967	0.132603818117872	0.9910408007233397	1.877057955177938	0.055253483903658626	0.45128168958134685	0.47144605741719836	0.02634471525181787	0.3876422491631769	0.23699216010698526	0.04914416574142688	0.3403804054975731	0.3719259944162542	0.23786581511848523	0.46226591644556175	0.4873192597326819	0.49229600298019477	0.4855953395014815	0.4357759624033688	0.48788599144882583	0.44542725860792576	0.24877206133745422	0.39117775705963453	0.4232242295149804	0.16658941596349164	0.4111692763132961	0.3857072497588882	0.17157421428164046	0.4658804662312718	0.40908174141899933	0.18209204053634362	-0.09917811834552617	0.5019713526877357	0.5769414789302441	-0.1919227634952085	0.6077041977353574	0.778310930486569	-0.05971038379638898	0.47415890337087074	0.8673071545340013	0.01673869800245301	0.41618665472673605	0.8023419946128569	0.03479147220186647	0.381293116206431	0.8440990472363802	0.046933880122575426	0.4354515828238595	0.916810412520585
101	1.7118644067796611	0.25137711072798197	0.6220864500446271	1.0324676176585275	0.28068922485790426	0.7656602894421511	1.423669573307854	0.2979382916142396	0.9228632254460627	1.8228670228994335	0.2558170868366275	0.7253869911503761	1.8794605683748733	0.3158951613820368	0.7724073900877195	1.8859697614054196	0.29712021731571425	1.0062994074013876	1.8733156375131528	0.03705621062101801	0.6590365823671903	1.052148730328413	0.08007849320536103	0.7969662943139195	1.4290903887419588	0.10079611074430331	0.9205079153873553	1.8252438514936444	0.09436443198944118	0.7423167302301755	1.877167509668406	0.0502607111177445	0.7879778698383153	1.8768126554533096	0.1325605594743709	0.9910297582388934	1.8770643142870638	0.05537248521276818	0.45127281042898104	0.4714453763428954	0.027924552500871145	0.3875636593053433	0.23679095833799946	0.05131690655000637	0.3367422631653526	0.3730374400717535	0.23808727806468435	0.46285319119607626	0.48893770460656216	0.4942723465190424	0.49508243955894193	0.4460044194391582	0.4919293465576797	0.4324632505062776	0.26341888179421874	0.4010939669971117	0.38903067956431403	0.1834842711955486	0.4207976252813163	0.3593460141099868	0.1860432481010258	0.46760958764031957	0.38316440229601684	0.1946219563873516	-0.09863943910361775	0.5090444630496676	0.576817303259232	-0.18990882548224144	0.6113885549985603	0.7789986256335443	-0.058809381806891	0.4760970878861491	0.871932714832355	0.016253548038964786	0.4178365946755951	0.8104450856308815	0.033977147771994086	0.3787402079071448	0.8470901242642916	0.0456309000927861	0.4357236403335186	0.922047213948748
102	1.728813559322034	0.25300937946393426	0.6257783110673609	1.0359302165596178	0.280733100688199	0.7654952785632239	1.4256766331378794	0.2977860784935238	0.9226700541356019	1.8227924437165255	0.25584936194755314	0.7255004838849048	1.8794775732460858	0.3159825053644887	0.7727081877708659	1.8860449273082824	0.2970698330393243	1.006186500876672	1.8732832458755477	0.037755827329766005	0.6553726569009616	1.0537562763552104	0.08046169644075561	0.7976543099569893	1.431171704058672	0.10079459929465265	0.920524837988322	1.82522020717772	0.09550978598270027	0.7422817251157016	1.8770278777731824	0.050264874440850815	0.7878278539640622	1.8767185659199668	0.13251322740690188	0.9910245475861537	1.877082383876147	0.05547754235559424	0.45118238367548424	0.47143865672965324	0.02915178098649681	0.387629042430686	0.23674380374447682	0.05297138178138056	0.3339698872225508	0.37416034632822	0.23834254759404358	0.4633244741871862	0.4905459560111155	0.4959269401660797	0.5117470037778588	0.4584207814824267	0.49898843128492526	0.41121418579109237	0.28228471619303447	0.41420090598768705	0.3535801824556879	0.205140635171282	0.4308544390792468	0.33015475427526403	0.2051780852950817	0.47467354229431946	0.3491877333442295	0.2150968890743954	-0.09831706842704248	0.5146236217334749	0.5776734404066055	-0.1869364401982599	0.6130366319278252	0.7805384545124805	-0.05849308706758843	0.476353218039426	0.8756571771245882	0.015450338494064617	0.42253598999958875	0.8192506966668159	0.03293146915976494	0.37618946789927243	0.8517593705435771	0.042415514051651164	0.4265245840411987	0.9267065912997055
103	1.7457627118644068	0.25382543239323824	0.6274367457746409	1.0394094016829512	0.28077053575644473	0.7653644173459494	1.4270941676709916	0.2977761738561292	0.9224424767434329	1.8228048955798979	0.2559323188498995	0.7257461698216783	1.8794927298913582	0.316063619612659	0.7732739477232019	1.886208790180053	0.29706455718025737	1.0061443218583093	1.8732575856746205	0.03867223649999182	0.650593633519803	1.0558674514242679	0.08060758575759797	0.7979790620896843	1.4317012210770614	0.10081221457464189	0.9205343015840979	1.825133055376487	0.096485234002779	0.7425521564622847	1.877796458575798	0.05023477314867427	0.7878312314201269	1.8767184503667298	0.13249630706230947	0.9910243280488301	1.8771032149042157	0.0555748698703812	0.4511223141805576	0.4714808595524883	0.02967863181070382	0.38798231354559565	0.23707568256731298	0.05359969542941761	0.33284996946515844	0.3746543718311537	0.23855916949304867	0.46360855350909935	0.4921497133055065	0.4968207503233531	0.5295778093851801	0.4716340706432106	0.5088856984805286	0.3861424295569708	0.30480479655058984	0.4266538375521775	0.31757816040786413	0.22836982411046367	0.44089400298516357	0.2952177536890445	0.22847320878923272	0.48824829776283796	0.3132621020241587	0.2455379260784529	-0.09820054978622135	0.5172357059684827	0.5795591243509994	-0.18319728403728297	0.6134295741009964	0.7823849935855566	-0.058502950079873745	0.4762325854472734	0.8791985307753294	0.014116055414768045	0.428160998858112	0.8276402939125523	0.0328328997880578	0.3741352017491836	0.8585647783498993	0.03885538598021354	0.4139797724031637	0.9314779535676814
104	1.7627118644067796	0.25396121215415	0.6281171265125176	1.0425784909035762	0.2807897380249813	0.7653100164833803	1.427573594796003	0.29840073086729263	0.922783702954354	1.8232637589398615	0.25605332053072327	0.726045176017948	1.879494943822637	0.3161447222768126	0.7740596593999788	1.8864454129196733	0.2971113791737777	1.006196576209644	1.8732591985162648	0.03935051141413889	0.6472045718209759	1.0575301783238842	0.08054383783649925	0.7980201897054485	1.4302714963057228	0.10084513758578027	0.9205159613766228	1.8249834318957578	0.09665803792246856	0.7430734257471313	1.8794157715663027	0.05021554610433535	0.7880418010932208	1.8767799672841248	0.13253159338827625	0.9910364048308725	1.8771040080528376	0.055548385973903665	0.45123186551169403	0.47177791774533095	0.02977632769409042	0.38867016877301475	0.23791992014815566	0.053557064307820396	0.332795887099185	0.37462298968759505	0.23875735335052398	0.4642333789851865	0.49402097565610004	0.4959958984533118	0.5378472701804814	0.48520310982254256	0.5198304098462115	0.3652656694991271	0.33136389039731073	0.4367571992141722	0.28121316196974294	0.2531492248436068	0.4518447854235156	0.2580734509026506	0.2564851850440847	0.505305935929067	0.27951890381007155	0.28442988505494926	-0.09819704255265307	0.5178029907887787	0.5815732691761052	-0.17991755733958167	0.6135562706142507	0.7838383831408154	-0.059090493387945135	0.476958055780225	0.8843924873997517	0.012807916569547733	0.43274104050013845	0.8362097175480888	0.03375870049898331	0.3735772025023008	0.8676667910763809	0.03592309999102721	0.4072347510190882	0.9378058276653234
